<svg width="626" height="44" xmlns="http://www.w3.org/2000/svg"><g fill="none" fill-rule="evenodd"><path d="M625.633-1.974S608.13 30.009 313 30.009.367-1.974.367-1.974v14.478S17.87 44.487 313 44.487c295.13 0 312.633-31.983 312.633-31.983V-1.974Z" fill="#D9D9D9"/><path d="M577.914 29.693h.012a38.95 38.95 0 0 1-.012.003l.06 4.046s-30.822 7.364-76.889 8.252v-3.52l.005-.001.022-.002c.657-.177 21.554-5.786 38.428-7.49 16.833-1.7 37.61-1.303 38.364-1.288l.01-.002v.002ZM47.164 29.693c.536-.01 21.448-.422 38.373 1.288 16.909 1.708 37.857 7.336 38.433 7.491l.012.002V41.994c-46.066-.888-76.89-8.252-76.89-8.252l.06-4.05h.009Z" fill="#CCC"/></g></svg>