<svg width="45" height="627" viewBox="0 0 45 627" fill="none" xmlns="http://www.w3.org/2000/svg">
<path fill-rule="evenodd" clip-rule="evenodd" d="M-1.13168 0.863968C-1.13168 0.863968 30.8513 18.367 30.8513 313.497C30.8513 608.627 -1.13168 626.13 -1.13168 626.13H13.3463C13.3463 626.13 45.3293 608.627 45.3293 313.497C45.3293 18.367 13.3463 0.863968 13.3463 0.863968H-1.13168Z" fill="#D9D9D9"/>
<path fill-rule="evenodd" clip-rule="evenodd" d="M30.5353 48.5829V48.5709C30.5363 48.5749 30.5373 48.5789 30.5383 48.5829L34.5843 48.5229C34.5843 48.5229 41.9483 79.345 42.8363 125.412H39.3163L39.3153 125.407L39.3133 125.385C39.1363 124.728 33.5273 103.831 31.8233 86.957C30.1233 70.124 30.5203 49.347 30.5353 48.593L30.5333 48.5829H30.5353ZM30.5353 579.333C30.5253 578.797 30.1133 557.885 31.8233 540.96C33.5313 524.051 39.1593 503.103 39.3143 502.527L39.3163 502.515H42.8363C41.9483 548.581 34.5843 579.405 34.5843 579.405L30.5343 579.345V579.336L30.5353 579.333Z" fill="#CCCCCC"/>
</svg>
