<svg width="626" height="158" viewBox="0 0 626 158" fill="none" xmlns="http://www.w3.org/2000/svg">
<g clip-path="url(#clip0_1_26)">
<path d="M106.12 132.551H53.612L53.612 96.242C53.6144 95.2295 54.0173 94.2591 54.7329 93.5428C55.4485 92.8264 56.4185 92.4224 57.431 92.419H62.467C64.567 92.419 66.286 94.139 66.286 96.242V114.018H102.356V96.242C102.358 95.2293 102.762 94.2588 103.477 93.5424C104.193 92.8261 105.163 92.4222 106.176 92.419H111.211C113.311 92.419 115.03 94.139 115.03 96.242V132.551H106.12Z" fill="#D9D9D9"/>
<path d="M61.76 77.973C60.3746 77.9751 59.0466 78.5268 58.0674 79.5069C57.0882 80.487 56.5378 81.8156 56.537 83.201L56.537 119.461C56.5375 120.847 57.0878 122.175 58.067 123.156C59.0462 124.136 60.3744 124.688 61.76 124.69H106.882C108.268 124.688 109.596 124.136 110.575 123.156C111.554 122.175 112.104 120.847 112.105 119.461V83.201C112.104 81.8156 111.554 80.487 110.575 79.5069C109.595 78.5268 108.267 77.9751 106.882 77.973H61.76ZM106.882 127.617H61.76C57.267 127.617 53.613 123.959 53.613 119.461L53.613 83.201C53.613 78.704 57.267 75.045 61.76 75.045H106.882C111.374 75.045 115.03 78.704 115.03 83.201V119.461C115.03 123.959 111.374 127.617 106.882 127.617Z" fill="#D9D9D9"/>
<path d="M84.32 64.86C76.537 64.86 70.2281 58.545 70.2281 50.753C70.2281 42.96 76.538 36.644 84.321 36.644C92.104 36.644 98.415 42.96 98.415 50.753C98.415 58.545 92.105 64.861 84.321 64.861M84.321 31.931C73.937 31.931 65.5201 40.357 65.5201 50.753C65.5201 61.148 73.937 69.573 84.32 69.573C94.704 69.573 103.122 61.148 103.122 50.753C103.122 40.357 94.704 31.931 84.321 31.931Z" fill="#7C7C7C"/>
<path d="M84.269 53.174C83.958 53.1739 83.65 53.1125 83.3627 52.9933C83.0754 52.8741 82.8143 52.6995 82.5945 52.4794C82.3747 52.2593 82.2005 51.9981 82.0816 51.7106C81.9628 51.4231 81.9017 51.1151 81.902 50.804C81.8907 50.4861 81.9436 50.1693 82.0574 49.8723C82.1712 49.5753 82.3437 49.3042 82.5645 49.0754C82.7854 48.8465 83.0502 48.6645 83.3429 48.5401C83.6357 48.4158 83.9505 48.3517 84.2685 48.3517C84.5866 48.3517 84.9014 48.4158 85.1942 48.5401C85.4869 48.6645 85.7516 48.8465 85.9725 49.0754C86.1934 49.3042 86.3659 49.5753 86.4797 49.8723C86.5935 50.1693 86.6464 50.4861 86.635 50.804C86.635 52.114 85.575 53.174 84.269 53.174ZM97.609 46.044H71.032C70.512 47.516 70.2281 49.098 70.2281 50.749C72.0261 50.807 75.3801 51.399 78.2881 54.635C81.1541 57.823 81.806 62.19 81.93 64.657C83.4679 64.9204 85.0387 64.9278 86.579 64.679C86.699 62.217 87.345 57.832 90.219 54.635C93.202 51.317 96.652 50.778 98.414 50.746C98.414 49.096 98.129 47.515 97.61 46.045" fill="#7C7C7C"/>
<path d="M624.525 43.25C624.525 43.25 607.056 13.947 312.518 13.947C17.978 13.947 0.512024 43.252 0.512024 43.252V29.985C0.512024 29.985 17.979 0.681 312.518 0.681C607.056 0.68 624.525 29.985 624.525 29.985V43.25ZM612.27 120.832H624.58V63.019H612.27V120.832ZM592.182 120.832H604.492V63.019H592.182V120.832ZM584.242 63.019H537.102C537.102 63.019 542.61 107.374 584.242 120.832V63.019Z" fill="#D9D9D9"/>
<path d="M47.537 15.073H47.534L47.474 11.03C47.474 11.03 78.283 3.67799 124.327 2.78999V6.30499C124.327 6.30499 103.038 12.059 85.901 13.788C68.761 15.518 47.534 15.074 47.534 15.074H47.537V15.073ZM500.757 6.30699H500.746L500.741 6.30499V2.79099C546.787 3.67799 577.595 11.03 577.595 11.03L577.535 15.07L577.546 15.074C577.546 15.074 556.317 15.518 539.179 13.788C522.201 12.075 501.149 6.41199 500.757 6.30699Z" fill="#CCCCCC"/>
<path d="M0.505035 153.136L258.278 153.136V158L0.505035 158V153.136ZM367.723 153.136L625.496 153.136V158L367.723 158V153.136Z" fill="#D9D9D9"/>
</g>
<defs>
<clipPath id="clip0_1_26">
<rect width="158" height="626" fill="white" transform="matrix(0 1 -1 0 626 0)"/>
</clipPath>
</defs>
</svg>
