<svg width="158" height="626" xmlns="http://www.w3.org/2000/svg"><g fill="none" fill-rule="evenodd"><path d="M122.514 510.97c5.544 0 10.038 4.49 10.038 10.028v41.362c0 5.538-4.494 10.028-10.038 10.028H85.083c-5.544 0-10.038-4.49-10.038-10.028v-41.362c0-5.538 4.494-10.027 10.038-10.027h37.43Z"/><path d="M132.551 519.88v52.508H96.242a3.832 3.832 0 0 1-3.823-3.819v-5.036c0-2.1 1.72-3.819 3.823-3.819h17.776v-36.07H96.242a3.832 3.832 0 0 1-3.823-3.82v-5.035c0-2.1 1.72-3.819 3.823-3.819H132.551v8.909Z" fill="#D9D9D9" fill-rule="nonzero"/><path d="M77.973 564.24a5.231 5.231 0 0 0 5.228 5.223h36.26a5.231 5.231 0 0 0 5.229-5.223v-45.122a5.231 5.231 0 0 0-5.229-5.223h-36.26a5.231 5.231 0 0 0-5.228 5.223v45.122Zm49.644-45.122v45.122c0 4.493-3.658 8.147-8.156 8.147h-36.26c-4.497 0-8.156-3.654-8.156-8.147v-45.122c0-4.492 3.659-8.148 8.156-8.148h36.26c4.498 0 8.156 3.656 8.156 8.148Z" fill="#D9D9D9" fill-rule="nonzero"/><path d="M64.86 541.68c0 7.783-6.315 14.092-14.107 14.092-7.793 0-14.109-6.31-14.109-14.093s6.316-14.094 14.109-14.094c7.792 0 14.108 6.31 14.108 14.094m-32.93 0c0 10.384 8.426 18.801 18.822 18.801 10.395 0 18.82-8.417 18.82-18.8 0-10.384-8.425-18.802-18.82-18.802-10.396 0-18.822 8.418-18.822 18.801" fill="#7C7C7C" fill-rule="nonzero"/><path d="M53.174 541.731a2.368 2.368 0 0 1-2.37 2.367 2.368 2.368 0 1 1 0-4.733c1.31 0 2.37 1.06 2.37 2.366m-7.13-13.34v26.577c1.472.52 3.054.804 4.705.804.058-1.798.65-5.152 3.886-8.06 3.188-2.866 7.555-3.518 10.022-3.642a14.163 14.163 0 0 0 .022-4.649c-2.462-.12-6.847-.766-10.044-3.64-3.318-2.983-3.857-6.433-3.889-8.195-1.65 0-3.231.285-4.701.804" fill="#7C7C7C" fill-rule="nonzero"/><path d="M43.25 1.475S13.947 18.944 13.947 313.482c0 294.54 29.305 312.006 29.305 312.006H29.985S.681 608.021.681 313.482C.68 18.944 29.985 1.475 29.985 1.475h13.266ZM120.832 13.73V1.42H63.019v12.31zM120.832 33.818v-12.31H63.019v12.31zM63.019 41.758v47.14s44.355-5.508 57.813-47.14H63.019Z" fill="#D9D9D9" fill-rule="nonzero"/><path d="M15.073 578.463v.003l-4.043.06s-7.352-30.809-8.24-76.853h3.515v.002-.002s5.754 21.289 7.483 38.426c1.73 17.14 1.286 38.367 1.286 38.367v-.003ZM6.307 125.243v.011l-.002.005H2.791c.887-46.046 8.239-76.854 8.239-76.854l4.04.06.004-.011s.444 21.229-1.286 38.367c-1.713 16.978-7.376 38.03-7.481 38.422Z" fill="#CCC" fill-rule="nonzero"/><path fill="#D9D9D9" fill-rule="nonzero" d="M153.136 625.495V367.722H158v257.773zM153.136 258.277V.504H158v257.773z"/></g></svg>