<?xml version="1.0" encoding="utf-8"?>
<!-- Generator: Adobe Illustrator 23.1.1, SVG Export Plug-In . SVG Version: 6.00 Build 0)  -->
<svg version="1.1" id="Capa_1" xmlns="http://www.w3.org/2000/svg" xmlns:xlink="http://www.w3.org/1999/xlink" x="0px" y="0px"
	 viewBox="0 0 922.3 143.4" style="enable-background:new 0 0 922.3 143.4;" xml:space="preserve">
<style type="text/css">
	.st0{fill-rule:evenodd;clip-rule:evenodd;fill:#0B3D5C;}
	.st1{fill:#0B3D5C;}
	.st2{fill:#89A6AB;}
	.st3{fill-rule:evenodd;clip-rule:evenodd;fill:#007077;}
	.st4{fill:#007077;}
</style>
<g>
	<g>
		<path class="st0" d="M139.7,132.2c0.8-0.1,1.4-0.3,1.7-0.6c0.4-0.3,0.7-0.9,0.9-1.8l4-14.7c0.1-0.4,0.2-0.8,0.2-1
			c0.1-0.3,0.1-0.5,0.1-0.8c0-0.6-0.2-0.9-0.5-1c-0.3-0.1-0.9-0.3-1.9-0.3v-0.9h10.4v0.9c-1.2,0.1-1.9,0.3-2.3,0.5
			c-0.4,0.2-0.7,0.8-1,1.8l-4.3,15.6c0,0.2-0.1,0.3-0.1,0.5c0,0.2,0,0.3,0,0.5c0,0.4,0.2,0.6,0.5,0.8c0.3,0.1,0.8,0.2,1.3,0.2
			c2.2,0,4.2-0.4,5.8-1.1c1.6-0.8,3.1-2.2,4.3-4.3l0.8,0.1l-1.9,6.4h-18.1V132.2z"/>
		<path class="st0" d="M170.2,120c-0.2-0.5-0.6-0.7-1.1-0.7c-1.2,0-2.4,1.4-3.6,4.2c-1.1,2.5-1.6,4.4-1.6,5.7c0,0.5,0.1,1,0.4,1.4
			c0.3,0.4,0.6,0.6,1,0.6c1.1,0,2.3-1.4,3.7-4.3c1-2.4,1.5-4.3,1.5-5.8C170.4,120.6,170.3,120.3,170.2,120 M162.6,121.8
			c2-2.6,4-3.9,6-3.9c0.8,0,1.4,0.2,1.8,0.7c0.2,0.3,0.4,0.8,0.6,1.5l0.6-1.7l3.6-0.2l-2.3,7.7c-0.3,1.1-0.6,1.9-0.7,2.5
			c-0.3,1.1-0.4,1.9-0.4,2.4c0,0.2,0,0.3,0.1,0.4c0.1,0.1,0.2,0.1,0.3,0.1c0.2,0,0.4-0.1,0.6-0.2c0.2-0.1,0.4-0.4,0.6-0.6
			c0.1-0.1,0.3-0.3,0.5-0.7c0.2-0.3,0.5-0.6,0.6-0.8l0.7,0.5c-0.9,1.3-1.7,2.3-2.5,3.1c-0.8,0.7-1.6,1.1-2.4,1.1
			c-0.5,0-1-0.2-1.4-0.6c-0.5-0.4-0.7-0.9-0.7-1.6c0-0.3,0.1-1,0.4-2c0,0,0,0-0.1,0.2c-0.1,0.2-0.3,0.5-0.6,0.8
			c-0.6,0.9-1.3,1.6-2,2.2c-0.8,0.6-1.6,0.9-2.6,0.9c-0.9,0-1.7-0.3-2.4-1c-0.7-0.7-1.1-1.8-1.1-3.3
			C159.7,126.8,160.7,124.3,162.6,121.8"/>
		<path class="st0" d="M181.3,132.2c0.8-0.1,1.3-0.3,1.7-0.6c0.4-0.3,0.7-0.9,0.9-1.8l4-14.7c0.1-0.4,0.2-0.8,0.3-1
			c0.1-0.3,0.1-0.5,0.1-0.8c0-0.6-0.2-0.9-0.5-1c-0.3-0.1-1-0.3-1.9-0.3v-0.9h10.4v0.9c-1.1,0.1-1.9,0.3-2.3,0.5
			c-0.4,0.2-0.7,0.8-1,1.8l-4.2,15.6c0,0.2-0.1,0.3-0.1,0.5c0,0.2,0,0.3,0,0.5c0,0.4,0.2,0.6,0.5,0.8c0.3,0.1,0.8,0.2,1.3,0.2
			c2.2,0,4.2-0.4,5.8-1.1c1.6-0.8,3.1-2.2,4.3-4.3l0.8,0.1l-1.9,6.4h-18.1V132.2z"/>
		<path class="st0" d="M202.1,129.8c0.1-0.3,0.2-0.8,0.3-1.3l2-7.3c0-0.1,0-0.2,0.1-0.3c0-0.1,0-0.2,0-0.2c0-0.4-0.1-0.7-0.4-0.8
			c-0.3-0.1-0.8-0.2-1.5-0.2v-0.9c0.6,0,1.5-0.1,2.7-0.2c1.2-0.1,2-0.3,2.5-0.4l1.4-0.3l-2.5,9.3c-0.2,0.8-0.4,1.3-0.4,1.7
			c-0.2,0.8-0.3,1.3-0.3,1.5c0,0.2,0.1,0.4,0.2,0.5c0.1,0.1,0.2,0.1,0.4,0.1c0.3,0,0.7-0.3,1.2-0.8c0.5-0.6,0.9-1.2,1.3-1.8l0.7,0.5
			c-1.1,1.6-1.9,2.6-2.4,3.2c-0.9,0.9-1.9,1.3-3,1.3c-0.6,0-1.1-0.2-1.6-0.5c-0.5-0.4-0.7-0.9-0.7-1.7
			C201.9,130.8,202,130.4,202.1,129.8 M213.6,110.6c0.3,0.3,0.4,0.7,0.4,1.1c0,0.3-0.1,0.6-0.3,0.8c-0.2,0.2-0.5,0.4-1,0.7l-5,2.8
			h-1.6l4-4.3c0.6-0.7,1.2-1.2,1.5-1.4c0.2-0.1,0.5-0.2,0.7-0.2C212.9,110.2,213.3,110.4,213.6,110.6"/>
		<path class="st0" d="M209.9,133l2.9-10.5c0.1-0.4,0.2-0.8,0.3-1c0.1-0.5,0.2-0.8,0.2-1c0-0.4-0.1-0.6-0.4-0.7
			c-0.2-0.1-0.7-0.2-1.4-0.2v-0.9c1.4-0.1,2.4-0.2,3.2-0.3c0.8-0.1,1.9-0.3,3.4-0.6l-2,6.1l0.1,0c0,0.1,0.3-0.4,1-1.5
			c0.7-1,1.4-1.9,2-2.5c0.6-0.6,1.3-1.2,2-1.5c0.7-0.4,1.4-0.6,2.1-0.6c0.7,0,1.3,0.2,1.8,0.6c0.5,0.4,0.7,1,0.7,1.9
			c0,0.8-0.5,2.7-1.4,5.5c-1,2.8-1.4,4.3-1.4,4.5c0,0.2,0.1,0.3,0.2,0.4c0.1,0.1,0.2,0.1,0.4,0.1c0.3,0,0.7-0.4,1.3-1.1
			c0.3-0.4,0.6-0.9,1-1.4l0.7,0.5c-0.8,1.3-1.5,2.3-2.1,2.8c-1,1-2,1.5-3.1,1.5c-0.6,0-1.1-0.2-1.6-0.5c-0.5-0.3-0.7-0.9-0.7-1.6
			c0-0.5,0.1-1.2,0.3-2.1c0.2-0.9,0.5-1.8,0.8-2.8l1.6-4.9c0-0.1,0.1-0.2,0.1-0.3c0-0.1,0-0.2,0-0.3c0-0.2-0.1-0.4-0.3-0.5
			c-0.2-0.1-0.3-0.1-0.5-0.1c-0.7,0-1.4,0.5-2.2,1.6c-0.8,1-1.5,2.1-2,3.1c-0.6,1.1-1,2.3-1.4,3.4c-0.4,1.2-0.8,2.7-1.4,4.6H209.9z"
			/>
		<path class="st0" d="M236.8,119.3c-0.1-0.3-0.4-0.4-0.8-0.4c-0.8,0-1.5,0.6-2.3,1.9c-0.7,1.2-1.4,3-2,5.2c1.9-0.4,3.2-1.2,4-2.5
			c0.8-1.2,1.2-2.3,1.2-3.2C237,119.9,237,119.6,236.8,119.3 M230,121.3c2-2.3,4.1-3.4,6.4-3.4c1,0,1.9,0.3,2.5,0.7
			c0.7,0.5,1,1.2,1,2.1c0,1.4-0.8,2.7-2.3,3.9c-1.6,1.2-3.6,2-6.1,2.4c-0.1,0.3-0.1,0.6-0.1,0.9c0,0.3-0.1,0.5-0.1,0.7
			c0,0.7,0.1,1.2,0.3,1.6c0.3,0.7,1,1.1,2,1.1c0.8,0,1.6-0.4,2.3-1.2c0.4-0.4,0.9-1,1.3-1.8l1,0.6c-0.8,1.4-1.6,2.4-2.3,3
			c-1.2,1-2.5,1.5-4,1.5c-1.2,0-2.2-0.4-3.3-1.2c-1-0.8-1.5-2.1-1.5-3.8C227.2,125.9,228.1,123.6,230,121.3"/>
		<path class="st0" d="M250.6,120c-0.2-0.5-0.6-0.7-1.1-0.7c-1.2,0-2.4,1.4-3.6,4.2c-1.1,2.5-1.6,4.4-1.6,5.7c0,0.5,0.1,1,0.4,1.4
			c0.3,0.4,0.6,0.6,1,0.6c1.1,0,2.3-1.4,3.7-4.3c1-2.4,1.5-4.3,1.5-5.8C250.8,120.6,250.8,120.3,250.6,120 M243.1,121.8
			c2-2.6,4-3.9,6-3.9c0.8,0,1.4,0.2,1.8,0.7c0.2,0.3,0.4,0.8,0.6,1.5l0.6-1.7l3.6-0.2l-2.3,7.7c-0.3,1.1-0.6,1.9-0.7,2.5
			c-0.3,1.1-0.4,1.9-0.4,2.4c0,0.2,0,0.3,0.1,0.4c0.1,0.1,0.2,0.1,0.3,0.1c0.2,0,0.4-0.1,0.6-0.2c0.2-0.1,0.4-0.4,0.6-0.6
			c0.1-0.1,0.3-0.3,0.5-0.7c0.3-0.3,0.5-0.6,0.6-0.8l0.7,0.5c-0.9,1.3-1.7,2.3-2.5,3.1c-0.8,0.7-1.6,1.1-2.4,1.1
			c-0.5,0-1-0.2-1.5-0.6c-0.5-0.4-0.7-0.9-0.7-1.6c0-0.3,0.1-1,0.4-2c0,0,0,0-0.1,0.2c-0.1,0.2-0.3,0.5-0.6,0.8
			c-0.6,0.9-1.3,1.6-2,2.2c-0.8,0.6-1.7,0.9-2.6,0.9c-0.9,0-1.7-0.3-2.4-1c-0.7-0.7-1.1-1.8-1.1-3.3
			C240.2,126.8,241.2,124.3,243.1,121.8"/>
		<path class="st0" d="M263,133l2.9-10.5c0.2-0.6,0.3-1.1,0.3-1.3c0-0.3,0.1-0.5,0.1-0.7c0-0.3-0.1-0.6-0.3-0.7
			c-0.2-0.1-0.7-0.1-1.4-0.2v-0.9c1.4-0.1,2.5-0.2,3.5-0.3c0.6-0.1,1.6-0.3,3-0.5l-2,6.1l0.1,0.1c1.4-2.2,2.5-3.6,3.2-4.3
			c1.2-1.2,2.4-1.8,3.7-1.8c0.6,0,1.1,0.2,1.5,0.6c0.4,0.4,0.6,0.9,0.6,1.6c0,0.5-0.1,1.1-0.3,1.8c-0.1,0.4-0.2,0.9-0.4,1.4
			c1.1-1.7,2-2.9,2.7-3.6c1.1-1.2,2.3-1.7,3.6-1.7c0.8,0,1.5,0.2,1.9,0.7c0.4,0.4,0.7,1.1,0.7,1.9c0,0.5-0.1,1.1-0.3,1.8
			c0,0.1-0.1,0.5-0.3,1.1l-1.7,5.2c-0.1,0.4-0.3,0.7-0.4,1.1c-0.1,0.4-0.2,0.7-0.2,0.8c0,0.1,0.1,0.3,0.2,0.3
			c0.1,0.1,0.2,0.1,0.4,0.1c0.3,0,0.7-0.4,1.3-1.1c0.3-0.4,0.6-0.9,1-1.4l0.7,0.5c-0.8,1.3-1.5,2.3-2.1,2.8c-1,1-2,1.5-3.1,1.5
			c-0.5,0-1.1-0.2-1.5-0.5c-0.5-0.3-0.7-0.8-0.7-1.6c0-0.6,0.1-1.5,0.4-2.6c0.2-0.7,0.4-1.4,0.7-2.3l1.6-4.9c0-0.1,0-0.2,0-0.2
			c0-0.1,0-0.2,0-0.2c0-0.2-0.1-0.4-0.2-0.5c-0.1-0.1-0.3-0.2-0.6-0.2c-0.7,0-1.5,0.6-2.3,1.7c-0.9,1.1-1.6,2.3-2.1,3.5
			c-0.2,0.4-0.4,1-0.6,1.6c-0.2,0.6-0.8,2.6-1.9,5.8h-3.9l3.3-10.6c0.1-0.3,0.2-0.5,0.2-0.7c0.1-0.2,0.1-0.4,0.1-0.6
			c0-0.3-0.1-0.5-0.2-0.6c-0.1-0.1-0.3-0.1-0.4-0.1c-0.5,0-1.2,0.5-2,1.5c-0.8,1-1.6,2.2-2.4,3.8c-0.4,0.8-0.8,2-1.3,3.5
			c-0.3,0.9-0.7,2.2-1.2,3.9H263z"/>
		<path class="st0" d="M297.7,120c-0.2-0.5-0.6-0.7-1.1-0.7c-1.2,0-2.4,1.4-3.6,4.2c-1.1,2.5-1.7,4.4-1.7,5.7c0,0.5,0.1,1,0.4,1.4
			c0.3,0.4,0.6,0.6,1,0.6c1.1,0,2.3-1.4,3.7-4.3c1-2.4,1.5-4.3,1.5-5.8C297.8,120.6,297.8,120.3,297.7,120 M290.1,121.8
			c2-2.6,4-3.9,6-3.9c0.8,0,1.4,0.2,1.8,0.7c0.2,0.3,0.4,0.8,0.6,1.5l0.6-1.7l3.6-0.2l-2.3,7.7c-0.3,1.1-0.6,1.9-0.7,2.5
			c-0.3,1.1-0.4,1.9-0.4,2.4c0,0.2,0,0.3,0.1,0.4c0.1,0.1,0.2,0.1,0.3,0.1c0.2,0,0.4-0.1,0.6-0.2c0.2-0.1,0.4-0.4,0.6-0.6
			c0.1-0.1,0.3-0.3,0.5-0.7c0.3-0.3,0.5-0.6,0.6-0.8l0.7,0.5c-0.9,1.3-1.7,2.3-2.5,3.1c-0.8,0.7-1.6,1.1-2.4,1.1
			c-0.5,0-1-0.2-1.5-0.6c-0.5-0.4-0.7-0.9-0.7-1.6c0-0.3,0.1-1,0.4-2c0,0,0,0-0.1,0.2c-0.1,0.2-0.3,0.5-0.6,0.8
			c-0.6,0.9-1.3,1.6-2.1,2.2c-0.8,0.6-1.6,0.9-2.6,0.9c-0.9,0-1.7-0.3-2.4-1c-0.7-0.7-1.1-1.8-1.1-3.3
			C287.2,126.8,288.2,124.3,290.1,121.8 M303.5,110.6c0.3,0.3,0.5,0.7,0.5,1.1c0,0.3-0.1,0.6-0.3,0.8c-0.2,0.2-0.5,0.4-1,0.7l-5,2.8
			h-1.6l4-4.3c0.7-0.7,1.2-1.2,1.6-1.4c0.2-0.1,0.5-0.2,0.7-0.2C302.8,110.2,303.2,110.4,303.5,110.6"/>
		<path class="st0" d="M303.6,128l0.9,0.1c0.2,1.6,0.6,2.7,1.2,3.4c0.7,0.6,1.3,1,2,1c0.6,0,1-0.2,1.3-0.5c0.3-0.4,0.5-0.8,0.5-1.2
			c0-0.4-0.1-0.9-0.4-1.4c-0.3-0.5-0.6-1-1-1.5l-1.2-1.5c-0.5-0.6-1-1.2-1.4-2c-0.4-0.8-0.6-1.5-0.6-2.3c0-1.1,0.4-2,1.2-2.8
			c0.8-0.8,1.9-1.2,3.3-1.2c0.6,0,1.2,0.1,1.8,0.4c0.6,0.2,1.1,0.4,1.3,0.4c0.3,0,0.5-0.1,0.6-0.2c0.1-0.1,0.3-0.3,0.4-0.5h0.9
			l-0.8,5l-0.9-0.1c-0.2-1.4-0.6-2.4-1.1-3c-0.5-0.6-1.1-0.9-1.7-0.9c-0.6,0-1.1,0.2-1.3,0.5c-0.3,0.4-0.4,0.8-0.4,1.2
			c0,0.4,0.1,0.8,0.3,1.1c0.2,0.4,0.6,0.9,1.2,1.7l1.6,2.1c0.4,0.4,0.7,1,0.9,1.6c0.3,0.6,0.4,1.3,0.4,1.9c0,1.3-0.5,2.4-1.4,3.2
			c-0.9,0.8-2.1,1.2-3.5,1.2c-0.6,0-1.2-0.1-1.8-0.4c-0.7-0.2-1-0.3-1.2-0.3c-0.3,0-0.5,0.1-0.6,0.2c-0.1,0.1-0.2,0.3-0.3,0.5h-0.9
			L303.6,128z"/>
		<path class="st0" d="M338.7,111.1c1.2,0.3,1.9,0.5,2.2,0.5c0.3,0,0.6-0.1,0.8-0.3c0.2-0.2,0.3-0.4,0.5-0.7h1l-1.7,7.7l-1-0.2
			c0-0.5,0-0.7,0-0.8c0-0.1,0-0.2,0-0.4c0-1.7-0.4-3-1.2-3.8c-0.8-0.8-1.8-1.3-3.1-1.3c-2.5,0-4.7,1.7-6.6,5c-1.7,3-2.5,6.1-2.5,9.2
			c0,2.3,0.5,3.8,1.6,4.7c1,0.8,2.2,1.2,3.4,1.2c1.6,0,3.1-0.5,4.5-1.6c0.8-0.6,1.5-1.3,2.3-2.3l1,0.7c-1.1,1.7-2.5,2.9-4,3.7
			c-1.5,0.8-3.1,1.2-4.7,1.2c-2.6,0-4.8-0.8-6.5-2.3c-1.7-1.5-2.5-3.6-2.5-6.2c0-3.9,1.3-7.4,3.9-10.2c2.6-2.9,5.7-4.3,9.3-4.3
			C336.4,110.6,337.5,110.7,338.7,111.1"/>
		<path class="st0" d="M353,118.7c1.5,0.9,2.3,2.4,2.3,4.5c0,2.3-0.9,4.6-2.6,6.8c-1.9,2.4-4.1,3.6-6.6,3.6c-1.3,0-2.5-0.4-3.6-1.2
			c-1.1-0.8-1.7-2.1-1.7-4c0-2.3,0.9-4.6,2.6-6.8c1.9-2.4,4.1-3.6,6.7-3.6C351.1,117.9,352.1,118.2,353,118.7 M344.8,131.5
			c0.3,0.6,0.8,0.9,1.5,0.9c1.4,0,2.6-1.6,3.7-4.7c0.9-2.6,1.4-4.9,1.4-6.8c0-0.5-0.1-0.9-0.2-1.2c-0.2-0.5-0.7-0.8-1.4-0.8
			c-1.6,0-2.9,1.7-3.9,5c-0.8,2.5-1.2,4.6-1.2,6.3C344.6,130.8,344.7,131.2,344.8,131.5 M356.2,110.6c0.3,0.3,0.4,0.7,0.4,1.1
			c0,0.3-0.1,0.6-0.3,0.8c-0.2,0.2-0.5,0.4-1,0.7l-5,2.8h-1.6l4-4.3c0.7-0.7,1.2-1.2,1.6-1.4c0.2-0.1,0.5-0.2,0.7-0.2
			C355.6,110.2,355.9,110.4,356.2,110.6"/>
		<path class="st0" d="M355.7,133l2.9-10.5c0.2-0.6,0.3-1.1,0.3-1.3c0-0.3,0.1-0.5,0.1-0.7c0-0.3-0.1-0.6-0.3-0.7
			c-0.2-0.1-0.7-0.1-1.4-0.2v-0.9c1.4-0.1,2.5-0.2,3.5-0.3c0.6-0.1,1.6-0.3,3.1-0.5l-2,6.1l0.1,0.1c1.4-2.2,2.5-3.6,3.2-4.3
			c1.2-1.2,2.4-1.8,3.7-1.8c0.6,0,1.1,0.2,1.5,0.6c0.4,0.4,0.6,0.9,0.6,1.6c0,0.5-0.1,1.1-0.3,1.8c-0.1,0.4-0.3,0.9-0.4,1.4
			c1.1-1.7,2-2.9,2.7-3.6c1.2-1.2,2.4-1.7,3.6-1.7c0.8,0,1.5,0.2,1.9,0.7c0.4,0.4,0.7,1.1,0.7,1.9c0,0.5-0.1,1.1-0.3,1.8
			c0,0.1-0.1,0.5-0.3,1.1l-1.7,5.2c-0.1,0.4-0.3,0.7-0.4,1.1c-0.1,0.4-0.2,0.7-0.2,0.8c0,0.1,0.1,0.3,0.2,0.3
			c0.1,0.1,0.2,0.1,0.4,0.1c0.3,0,0.7-0.4,1.3-1.1c0.3-0.4,0.6-0.9,1-1.4l0.7,0.5c-0.8,1.3-1.5,2.3-2.1,2.8c-1,1-2,1.5-3.1,1.5
			c-0.5,0-1.1-0.2-1.6-0.5c-0.5-0.3-0.7-0.8-0.7-1.6c0-0.6,0.1-1.5,0.4-2.6c0.2-0.7,0.4-1.4,0.7-2.3l1.6-4.9c0-0.1,0-0.2,0-0.2
			c0-0.1,0-0.2,0-0.2c0-0.2-0.1-0.4-0.2-0.5c-0.1-0.1-0.3-0.2-0.6-0.2c-0.7,0-1.5,0.6-2.3,1.7c-0.9,1.1-1.6,2.3-2.1,3.5
			c-0.2,0.4-0.4,1-0.6,1.6c-0.2,0.6-0.8,2.6-1.9,5.8h-3.9l3.3-10.6c0.1-0.3,0.2-0.5,0.2-0.7c0.1-0.2,0.1-0.4,0.1-0.6
			c0-0.3-0.1-0.5-0.2-0.6c-0.1-0.1-0.3-0.1-0.4-0.1c-0.5,0-1.2,0.5-2,1.5c-0.8,1-1.6,2.2-2.4,3.8c-0.4,0.8-0.9,2-1.3,3.5
			c-0.3,0.9-0.7,2.2-1.2,3.9H355.7z"/>
		<path class="st0" d="M392.8,118.7c1.5,0.9,2.3,2.4,2.3,4.5c0,2.3-0.9,4.6-2.6,6.8c-1.9,2.4-4.1,3.6-6.6,3.6
			c-1.3,0-2.5-0.4-3.6-1.2c-1.1-0.8-1.7-2.1-1.7-4c0-2.3,0.9-4.6,2.6-6.8c1.9-2.4,4.2-3.6,6.7-3.6
			C390.9,117.9,391.9,118.2,392.8,118.7 M384.7,131.5c0.3,0.6,0.8,0.9,1.5,0.9c1.4,0,2.6-1.6,3.7-4.7c0.9-2.6,1.4-4.9,1.4-6.8
			c0-0.5-0.1-0.9-0.2-1.2c-0.3-0.5-0.7-0.8-1.4-0.8c-1.6,0-2.9,1.7-3.9,5c-0.8,2.5-1.2,4.6-1.2,6.3
			C384.4,130.8,384.5,131.2,384.7,131.5"/>
		<path class="st0" d="M399.8,130.6c0.3,0.3,0.6,0.5,1,0.5c1.3,0,2.5-1.5,3.7-4.6c1-2.5,1.5-4.4,1.5-5.6c0-0.4-0.1-0.7-0.2-1
			c-0.2-0.5-0.6-0.7-1.1-0.7c-1.2,0-2.5,1.4-3.7,4.1c-1.1,2.4-1.7,4.4-1.7,5.8C399.4,129.7,399.5,130.2,399.8,130.6 M405.8,118.3
			c0.3,0.1,0.5,0.4,0.8,0.7l1.4-5.4c0-0.1,0.1-0.2,0.1-0.3c0-0.1,0-0.2,0-0.3c0-0.4-0.1-0.6-0.4-0.8c-0.2-0.1-0.6-0.2-1-0.2h-0.7
			v-0.9l1.4-0.1c1.1-0.1,2-0.2,2.5-0.3c0.6-0.1,1.6-0.3,2.9-0.5l-3.6,13.2c-0.3,1-0.7,2.5-1.2,4.3c-0.5,1.8-0.7,2.8-0.7,3
			c0,0.2,0,0.3,0.1,0.3c0.1,0.1,0.2,0.1,0.3,0.1c0.3,0,0.6-0.3,1-0.8c0.4-0.5,0.8-1.1,1.1-1.6l0.7,0.5c-0.9,1.3-1.6,2.2-2.1,2.7
			c-1,1-1.9,1.4-2.8,1.4c-0.5,0-0.9-0.1-1.2-0.4c-0.5-0.3-0.8-0.9-0.8-1.8c0-0.1,0-0.4,0.1-0.7c0.1-0.4,0.1-0.8,0.2-1.3
			c-0.8,1.3-1.5,2.2-2,2.7c-1,1-2.1,1.5-3.3,1.5c-1,0-1.8-0.4-2.5-1.1c-0.7-0.7-1-1.9-1-3.3c0-2.3,1-4.8,2.9-7.3c2-2.6,4-3.9,6-3.9
			C404.8,117.9,405.3,118,405.8,118.3"/>
		<path class="st0" d="M421.2,120c-0.2-0.5-0.6-0.7-1.1-0.7c-1.2,0-2.4,1.4-3.6,4.2c-1.1,2.5-1.6,4.4-1.6,5.7c0,0.5,0.1,1,0.4,1.4
			c0.3,0.4,0.6,0.6,1,0.6c1.1,0,2.3-1.4,3.7-4.3c1-2.4,1.5-4.3,1.5-5.8C421.3,120.6,421.3,120.3,421.2,120 M413.6,121.8
			c2-2.6,4-3.9,6-3.9c0.8,0,1.4,0.2,1.8,0.7c0.2,0.3,0.4,0.8,0.6,1.5l0.6-1.7l3.6-0.2l-2.3,7.7c-0.3,1.1-0.6,1.9-0.7,2.5
			c-0.3,1.1-0.4,1.9-0.4,2.4c0,0.2,0,0.3,0.1,0.4c0.1,0.1,0.2,0.1,0.3,0.1c0.2,0,0.4-0.1,0.6-0.2c0.2-0.1,0.4-0.4,0.6-0.6
			c0.1-0.1,0.3-0.3,0.5-0.7c0.3-0.3,0.5-0.6,0.6-0.8l0.7,0.5c-0.9,1.3-1.7,2.3-2.5,3.1c-0.8,0.7-1.6,1.1-2.4,1.1
			c-0.5,0-1-0.2-1.5-0.6c-0.5-0.4-0.7-0.9-0.7-1.6c0-0.3,0.1-1,0.4-2c0,0,0,0-0.1,0.2c-0.1,0.2-0.3,0.5-0.6,0.8
			c-0.6,0.9-1.2,1.6-2,2.2c-0.8,0.6-1.6,0.9-2.6,0.9c-0.9,0-1.7-0.3-2.4-1c-0.8-0.7-1.1-1.8-1.1-3.3
			C410.7,126.8,411.7,124.3,413.6,121.8"/>
		<polygon class="st1" points="208.1,35.1 280.5,35.1 274.8,57.3 232.9,57.3 230.9,65.2 267.2,65.2 263.3,80.3 227,80.3 225.3,86.6 
			267.2,86.6 262.4,105.3 190,105.3 		"/>
		<polygon class="st1" points="301.3,57.3 280.4,57.3 286.1,35.1 358.5,35.1 352.8,57.3 331.9,57.3 319.5,105.3 288.9,105.3 		"/>
		<polygon class="st1" points="364.1,35.1 398.7,35.1 405.7,76.1 405.9,76.1 416.5,35.1 446.8,35.1 428.7,105.3 395.2,105.3 
			386.1,68.2 385.9,68.2 376.3,105.3 346,105.3 		"/>
		<path class="st2" d="M192,75.3l-1.3,5l-10.4,0c-20.9-0.2-68.1,4.9-83.4,43.2c-0.5,1.4-2.8,8.5-3.1,9.5l-89.3,0
			c0.1-0.2,3.1-9.3,3.2-9.5c2.8-8.1,17.3-48.8,83.2-48.1L192,75.3z"/>
		<path class="st2" d="M58.6,9.7l77.6,0c0-0.1,0.1,2.5,0.1,3.4c0.1,21.5,18.1,51.2,58.3,52.1l-1.3,5H144c-70.2,0-85.3-36.2-85.4-57
			C58.6,13.1,58.6,11.8,58.6,9.7"/>
		<path class="st1" d="M442.7,95.1c0.9,0,1.8,0.2,2.6,0.7c0.8,0.5,1.5,1.1,2,2c0.5,0.9,0.7,1.7,0.7,2.7c0,0.9-0.2,1.8-0.7,2.6
			c-0.5,0.8-1.1,1.5-2,2c-0.8,0.5-1.7,0.7-2.6,0.7c-0.9,0-1.8-0.2-2.6-0.7c-0.8-0.5-1.5-1.1-2-2c-0.5-0.8-0.7-1.7-0.7-2.6
			c0-0.9,0.2-1.8,0.7-2.7c0.5-0.9,1.1-1.5,2-2C440.9,95.3,441.8,95.1,442.7,95.1 M442.7,96c-0.7,0-1.5,0.2-2.2,0.6
			c-0.7,0.4-1.3,0.9-1.7,1.6c-0.4,0.7-0.6,1.5-0.6,2.2c0,0.8,0.2,1.5,0.6,2.2c0.4,0.7,0.9,1.2,1.6,1.6c0.7,0.4,1.4,0.6,2.2,0.6
			c0.8,0,1.5-0.2,2.2-0.6c0.7-0.4,1.2-0.9,1.6-1.6c0.4-0.7,0.6-1.4,0.6-2.2c0-0.8-0.2-1.5-0.6-2.2s-0.9-1.3-1.7-1.6
			C444.2,96.2,443.4,96,442.7,96 M440.4,103.3v-5.7h2c0.7,0,1.2,0.1,1.5,0.2c0.3,0.1,0.5,0.3,0.7,0.6s0.3,0.5,0.3,0.8
			c0,0.4-0.1,0.8-0.4,1.1c-0.3,0.3-0.7,0.5-1.2,0.5c0.2,0.1,0.4,0.2,0.5,0.3c0.2,0.2,0.5,0.6,0.8,1.1l0.7,1.1H444l-0.5-0.9
			c-0.4-0.7-0.7-1.2-1-1.3c-0.2-0.1-0.4-0.2-0.7-0.2h-0.5v2.4H440.4z M441.3,100.1h1.1c0.5,0,0.9-0.1,1.1-0.2
			c0.2-0.2,0.3-0.4,0.3-0.6c0-0.2,0-0.3-0.1-0.5c-0.1-0.1-0.2-0.2-0.4-0.3c-0.2-0.1-0.5-0.1-0.9-0.1h-1V100.1z"/>
	</g>
	<g>
		<g>
			<path class="st3" d="M544.8,52l73.5-5.1l-5.3,5.7c0,0-0.6,0.7-2.2,0.8c-1.6,0.1-71,4.5-71,4.5s-0.4-0.2-1.3,0.5L490.2,106
				c0,0-2.7,4,1.4,3.8c4-0.2,27.9-14.6,46-34.1c0,0,2.4-3,4.6-3.6c2.1-0.5,6.9,0.1,6.9,0.1s-7.8,10.1-21,20.6
				c-13.1,10.5-10.1,12.2-10.1,12.2s3.9,2.9,18.8-10c14.9-12.9,18.2-15.2,25.5-23.8c0,0,2.7-3.2,6.2-2.4c0,0,1.4,0.4,2.3,1
				c0.9,0.6-15.7,17.3-26,24.9c-10.3,7.6,0,5.5,3.6,4.1c3.5-1.4,12.9-4.9,25.8-17.8c12.9-12.9,17.6-15.3,17.6-15.3s2.9-1.7,4.5-0.9
				c1.5,0.9-2.3,4-2.3,4l-11.2,10.8c0,0-1.4,1.5-0.6,2.2c0.7,0.7,1.7,0.4,4.3-1.6c2.6-2.1,16-13.9,23-18.7c0,0,0.7-1,2.6,0.7
				c1.9,1.7,4,6.8,12.9,2.2c8.9-4.6,17.6-9,17.6-9s1.8,1.9,3.1,4.6c0,0-21.4,11-34,28.2c0,0-0.4,1.3,1.4,0.4
				c1.8-0.9,25.2-13.4,33.8-19.1c0,0,0.7-0.4,0.9,0.3c0.2,0.7,0.8,4.6,0.8,5c0,0-34.9,19.2-51.9,26.9l-4.8,1.7c0,0-3.1,0.5-2.2-1.8
				c0.9-2.3,20.3-22.5,28.6-30.2c0,0,0.5-0.5-10.7-1.5c0,0-0.7-0.1-3.6,2.5c-2.9,2.6-35,32.2-35,32.2l-11.6,0.8
				c0,0,13.3-12.1,14.8-13.9c0,0,1.3-1.2-1-1.5c0,0-2.1,1-6.6,4.1c-4.5,3.2-17.9,12.6-25.6,12.3c0,0-2.3,0.4-3.1-0.7
				c-0.8-1.1-1.5-2.7-2.2-2.4c0,0-13.3,7.3-17.3,9c-4,1.7-8.7-0.4-12.3-2.6c0,0-20.3,12.3-26.9,12.2c-6.7-0.1-1.2-7.6-1.2-7.6
				s29.3-32.3,53-54c0,0,1.9-2-3.5-1.1c-5.5,0.9-29.9,8.1-41.1,12.5c0,0,4-9.2,9.7-16c0,0,36.9-2.4,41.8-2.8c0,0,0.4,0.3,1.3-0.8
				c0.9-1.1,25.7-24.8,25.7-24.8s4.2-3.3,9.8-4.5c0,0,4.7-1.3,5.1-0.8c0.5,0.5,0.8,1.6,0.1,2c-0.7,0.4-5.4,3-18,14.4
				C547.1,49.6,544.8,52,544.8,52"/>
			<path class="st3" d="M661.4,46.1c1,1.9-1.5,5.2-5.4,7.2c-4,2-8,2.2-9,0.3c-1-1.9,1.5-5.1,5.5-7.2
				C656.3,44.3,660.4,44.2,661.4,46.1"/>
			<path class="st3" d="M571,120.2c0,0,80.6-4.3,99-6.3c0,0,19-12.4,35.4-28.9c16.4-16.4-11.3-13.9-11.3-13.9s-12-2.7-2-8.6
				c10-5.9,41-11.6,64.9-14.6c0,0,4.3-3.2,6.6-6.1c0,0-60.8,2.8-102.4,22.6c0,0-8.3,7.9,12.3,9.4c0,0,7.6,0.3,7.3,4.7
				c-0.3,4.4-3.4,6.2-13.3,9.9c-9.9,3.7-97.1,29.6-97.1,29.6S567.8,119.9,571,120.2"/>
			<path class="st4" d="M846.2,70.9c0,0-1.4-2.5-1.7-3c-0.3-0.5-1.4-0.7-1.4-0.7S823.7,81.5,820.5,83c-3.1,1.5-3.8,0.2-3.5-0.5
				c0.3-0.7,8.5-7.3,11.8-9.8c3.3-2.5,4.7-3.9,4.7-3.9c-1.4,0.1-7.8,0.3-7.8,0.3s-19,12.8-25.9,17.4c-6.8,4.6-17.5,10.9-18.7,11.5
				c-1.3,0.5-4.7,1.4-5.3,0.1c-0.6-1.3,2.1-3.6,2.1-3.6s31.7-23.4,32.1-23.7c0.4-0.3-0.1-0.4-0.1-0.4l-9.5,0.4c0,0-3.9,2.9-5.2,4
				c-1.3,1.1-1.6,0.3-1.6,0.3c-3.1-6.4-8-4.1-10.6-3.4c-2.5,0.6-51.5,21.8-52.8,22.2c-1.3,0.4-0.9-0.3-0.9-0.3
				c7.1-8,33.7-31.3,36-33c2.3-1.7,3.6-1.6,3.6-1.6s66.7-1,68-1.2c1.3-0.1,2.3-0.6,2.3-0.6c1.3-1.9,4.4-7.3,4.4-7.3
				c-5.7,0.6-73,5-73,5l20.1-19c-1.6-0.8-6.6-0.3-7-0.1c-0.4,0.2-1.5,1-1.5,1L762,55.2l-32.2,2.3c-2.6,4.2-2.6,8.5-2.6,8.5
				c5.3-1,28.4-5.8,28.4-5.8c0.6,0.1,0.1,1.2,0.1,1.2c-1.8,3-14,13.6-20.1,19c-6.1,5.5-14.8,14.1-19,19.3c-4.2,5.3-4.8,6.3-4.8,7.5
				c0.1,1.2,3.9,0.1,3.9,0.1c12.7-3.6,28.9-13.7,33.1-15.7c4.2-2,4,0.5,4,0.5c-3.1,4.7-6,3.5-8.7,8.3c-2.7,4.9,1.2,5.7,6.4,5.3
				c5.2-0.4,15.9-4.8,17.3-5.3c1.4-0.5,1.3,0.1,1.3,0.1c2.4,4.3,7.8,3.6,12.4,3c4.5-0.6,18.2-9.5,18.2-9.5s11.4-5.8,8.7-1.7
				c-2.7,4.1-16,10.8-16,10.8H803c0,0,34.1-24.1,35.5-25.1c1.4-1,2.6-0.8,2.6-0.8s71.4-4.4,72.4-4.5c1-0.1,2.1-0.3,2.1-0.3
				c1.7-1.7,2.3-5.4,2.3-5.4L846.2,70.9z M755.7,97.3c-1.1-1.8,5.3-7.7,14.2-13.2c9-5.5,17.1-8.5,18.2-6.6
				c1.1,1.8-5.3,7.7-14.2,13.2C765,96.2,756.8,99.1,755.7,97.3"/>
		</g>
		<path class="st4" d="M912.2,49.6c0.9,0,1.8,0.2,2.6,0.7c0.8,0.5,1.5,1.1,2,2c0.5,0.9,0.7,1.7,0.7,2.7c0,0.9-0.2,1.8-0.7,2.6
			c-0.5,0.8-1.1,1.5-2,2c-0.8,0.5-1.7,0.7-2.6,0.7c-0.9,0-1.8-0.2-2.6-0.7c-0.8-0.5-1.5-1.1-2-2c-0.5-0.8-0.7-1.7-0.7-2.6
			c0-0.9,0.2-1.8,0.7-2.7c0.5-0.8,1.1-1.5,2-2C910.4,49.8,911.3,49.6,912.2,49.6 M912.2,50.5c-0.7,0-1.5,0.2-2.2,0.6
			c-0.7,0.4-1.3,0.9-1.7,1.6c-0.4,0.7-0.6,1.4-0.6,2.2c0,0.8,0.2,1.5,0.6,2.2c0.4,0.7,0.9,1.2,1.6,1.6c0.7,0.4,1.4,0.6,2.2,0.6
			c0.8,0,1.5-0.2,2.2-0.6c0.7-0.4,1.2-0.9,1.6-1.6c0.4-0.7,0.6-1.4,0.6-2.2c0-0.8-0.2-1.5-0.6-2.2c-0.4-0.7-0.9-1.3-1.7-1.6
			C913.7,50.7,912.9,50.5,912.2,50.5 M909.9,57.8v-5.7h2c0.7,0,1.2,0.1,1.5,0.2c0.3,0.1,0.5,0.3,0.7,0.6c0.2,0.3,0.3,0.5,0.3,0.8
			c0,0.4-0.1,0.8-0.4,1.1c-0.3,0.3-0.7,0.5-1.2,0.5c0.2,0.1,0.4,0.2,0.5,0.3c0.2,0.2,0.5,0.6,0.8,1.1l0.7,1.1h-1.1l-0.5-0.9
			c-0.4-0.7-0.7-1.2-1-1.3c-0.2-0.1-0.4-0.2-0.7-0.2h-0.5v2.4H909.9z M910.8,54.6h1.1c0.5,0,0.9-0.1,1.1-0.2
			c0.2-0.2,0.3-0.4,0.3-0.6c0-0.2,0-0.3-0.1-0.5c-0.1-0.1-0.2-0.2-0.4-0.3c-0.2-0.1-0.5-0.1-0.9-0.1h-1V54.6z"/>
	</g>
</g>
</svg>
